<svg width="20" height="20" viewBox="0 0 20 20" fill="none" xmlns="http://www.w3.org/2000/svg">
<path d="M17.5531 2.23621V16.5319C17.5531 17.0969 17.0969 17.553 16.5319 17.553H2.23627C1.67126 17.553 1.21515 17.0969 1.21515 16.5319V2.23621C1.21515 1.67118 1.67126 1.21509 2.23627 1.21509H16.5319C17.0969 1.21509 17.5531 1.67118 17.5531 2.23621Z" fill="#FFC536"/>
<path d="M11.8027 1.21509V5.90542L10.5934 4.58817L9.38407 5.90542L8.17472 4.58817L6.96539 5.90542V1.21509H11.8027Z" fill="#F34624"/>
<path d="M18.7848 15.6323C18.7848 17.3727 17.3753 18.7849 15.6349 18.7849C13.8946 18.7849 12.4824 17.3727 12.4824 15.6323C12.4824 13.8919 13.8946 12.4824 15.6349 12.4824C17.3753 12.4824 18.7848 13.8919 18.7848 15.6323Z" fill="#F34624"/>
<path d="M17.0083 16.1479L16.4936 15.6331L17.0083 15.1183C17.2455 14.8811 17.2455 14.4966 17.0083 14.2594C16.7712 14.0222 16.3866 14.0222 16.1494 14.2594L15.6347 14.7742L15.1199 14.2594C14.8827 14.0222 14.4982 14.0222 14.261 14.2594C14.0238 14.4966 14.0238 14.8811 14.261 15.1183L14.7758 15.6331L14.261 16.1479C14.0238 16.385 14.0238 16.7696 14.261 17.0067C14.4982 17.2439 14.8827 17.2439 15.1199 17.0067L15.6347 16.492L16.1495 17.0067C16.3866 17.2439 16.7712 17.2439 17.0083 17.0067C17.2455 16.7696 17.2455 16.385 17.0083 16.1479Z" fill="white"/>
</svg>
