<svg width="20" height="20" viewBox="0 0 20 20" fill="none" xmlns="http://www.w3.org/2000/svg">
<path d="M17.2749 6.88379V15.2661L9.99957 16.9524V8.57013L17.2749 6.88379Z" fill="#F4B25B"/>
<path d="M17.2734 6.88428V8.4418L14.5195 9.07954C12.614 9.5208 11.2648 11.2182 11.2648 13.1741V16.6576L9.99878 16.9529V8.57099L17.2734 6.88428Z" fill="#E29A44"/>
<path d="M9.99954 8.57013V16.9524L3.00999 15.3323C2.84269 15.2936 2.72424 15.1445 2.72424 14.9728V6.88379L9.99954 8.57013Z" fill="#FFC776"/>
<path d="M9.99881 8.57107V16.9529L3.0099 15.3325C2.84261 15.2937 2.72418 15.1447 2.72418 14.9729V13.8637L4.996 14.3904C6.92774 14.8383 8.77351 13.3715 8.77351 11.3885V8.28687L9.99881 8.57107Z" fill="#F4B25B"/>
<path d="M17.2758 6.88588L9.99789 8.56905L2.72467 6.88588L9.99789 5.19751L17.2758 6.88588Z" fill="#666666"/>
<path d="M17.2772 6.88447L14.9557 7.41962L10.5241 6.39341C10.1785 6.31338 9.81915 6.31338 9.47356 6.39341L5.04204 7.41962L2.72418 6.88447L9.99881 5.19775L17.2772 6.88447Z" fill="#595857"/>
<path d="M17.2749 6.88379L19.3193 9.20835C19.5037 9.41802 19.3975 9.7486 19.1255 9.81165L12.6668 11.3087C12.5345 11.3394 12.396 11.2949 12.3063 11.1929L9.99957 8.57013L17.2749 6.88379Z" fill="#FFC776"/>
<path d="M19.1251 9.81017L18.8974 9.86279L17.8903 8.71693C17.4218 8.18382 16.6982 7.95126 16.0068 8.11155L10.6816 9.34606L9.99878 8.57099L17.2734 6.88428L19.319 9.20661C19.5037 9.41631 19.3974 9.74724 19.1251 9.81017Z" fill="#F4B25B"/>
<path d="M2.72493 6.88379L0.680477 9.20835C0.496074 9.41802 0.602271 9.7486 0.87428 9.81165L7.333 11.3087C7.46532 11.3394 7.60379 11.2949 7.69349 11.1929L10.0002 8.57013L2.72493 6.88379Z" fill="#F4B25B"/>
<path d="M9.99882 8.57111L7.6938 11.1921C7.60409 11.2941 7.46561 11.3385 7.33328 11.3079L0.875722 9.8106C0.603604 9.74751 0.497489 9.4167 0.68213 9.20709L0.956266 8.89588L6.17962 10.1039C6.84527 10.2578 7.54172 10.0341 7.99322 9.52133L9.02817 8.34595L9.99882 8.57111Z" fill="#E29A44"/>
<path d="M2.72493 6.88394L0.680477 4.55938C0.496074 4.34971 0.602271 4.01913 0.87428 3.95608L7.333 2.45901C7.46532 2.42834 7.60379 2.47282 7.69349 2.57481L10.0002 5.19759L2.72493 6.88394Z" fill="#FFC776"/>
<path d="M9.9988 5.19767L2.72418 6.88438L2.13739 6.21634L6.94643 5.10072C7.736 4.91755 8.04448 3.95815 7.50962 3.34913L6.82843 2.57349L7.33331 2.45697C7.46562 2.42644 7.60401 2.47102 7.69361 2.57304L9.9988 5.19767Z" fill="#F4B25B"/>
<path d="M17.2749 6.88394L19.3193 4.55937C19.5037 4.34971 19.3975 4.01912 19.1255 3.95607L12.6668 2.45901C12.5345 2.42834 12.396 2.47282 12.3063 2.57481L9.99957 5.19759L17.2749 6.88394Z" fill="#F4B25B"/>
<path d="M19.3195 4.55843L17.2734 6.88449L9.99878 5.19778L10.6964 4.40424L15.6383 5.55149C16.4136 5.73147 17.2251 5.47148 17.7515 4.87448L18.6575 3.84692L19.1255 3.95505C19.3977 4.01794 19.504 4.34868 19.3195 4.55843Z" fill="#E29A44"/>
<path d="M16.5239 17.5526C18.1179 17.5526 19.41 16.2604 19.41 14.6664C19.41 13.0725 18.1179 11.7803 16.5239 11.7803C14.9299 11.7803 13.6377 13.0725 13.6377 14.6664C13.6377 16.2604 14.9299 17.5526 16.5239 17.5526Z" fill="#77E244"/>
<path d="M19.4115 14.6646C19.4115 16.2554 18.1197 17.5509 16.5254 17.5509C15.4919 17.5509 14.584 17.0046 14.0746 16.1889C14.5138 16.4584 15.0305 16.6134 15.5842 16.6134C17.1786 16.6134 18.4704 15.3179 18.4704 13.7272C18.4704 13.1698 18.3117 12.6458 18.0348 12.2065C18.8617 12.7122 19.4115 13.6238 19.4115 14.6646Z" fill="#62D333"/>
<path d="M16.3263 15.6481C16.2698 15.6481 16.2134 15.6266 16.1703 15.5835L15.464 14.8772C15.3779 14.791 15.3779 14.6515 15.464 14.5653C15.5502 14.4791 15.6898 14.4791 15.776 14.5653L16.3263 15.1156L17.6933 13.7487C17.7795 13.6625 17.9191 13.6625 18.0053 13.7487C18.0914 13.8349 18.0914 13.9745 18.0053 14.0606L16.4823 15.5835C16.4392 15.6266 16.3827 15.6481 16.3263 15.6481Z" fill="white"/>
</svg>
