<svg width="23" height="23" viewBox="0 0 23 23" fill="none" xmlns="http://www.w3.org/2000/svg">
<g clip-path="url(#clip0_16346_8495)">
<path d="M21.2239 11.0895C21.2239 16.9623 16.463 21.7232 10.5902 21.7232C4.71745 21.7232 -0.043457 16.9623 -0.043457 11.0895C-0.043457 5.21672 4.71745 0.455811 10.5902 0.455811C16.463 0.455811 21.2239 5.21672 21.2239 11.0895Z" fill="#FF9F60"/>
<path d="M12.9324 15.9063C12.9324 13.3691 14.9966 11.3049 17.534 11.3049C18.648 11.3049 19.6709 11.703 20.4679 12.3644V5.49048H1.66736V16.8751C2.15767 17.6295 2.7409 18.318 3.4011 18.9241H14.0631C13.3592 18.1158 12.9324 17.0599 12.9324 15.9063Z" fill="#EEF6FF"/>
<path d="M1.66736 5.49048V16.8751C2.05425 17.4705 2.49998 18.024 2.9947 18.5291V5.49048H1.66736Z" fill="#D9EAFC"/>
<path d="M20.0339 2.84277H2.10139C1.86267 2.84277 1.66736 3.03809 1.66736 3.2768V5.53375H20.4679V3.2768C20.4679 3.03809 20.2726 2.84277 20.0339 2.84277Z" fill="#EA2A3D"/>
<path d="M3.42873 2.84277H2.10139C1.86267 2.84277 1.66736 3.03809 1.66736 3.2768V5.53375H2.9947V3.2768C2.9947 3.03809 3.19002 2.84277 3.42873 2.84277Z" fill="#B7092B"/>
<path d="M6.49211 8.67141C6.49211 8.79076 6.39445 8.88842 6.27509 8.88842H3.18943C3.07007 8.88842 2.97241 8.79076 2.97241 8.67141V6.83713C2.97241 6.71777 3.07007 6.62012 3.18943 6.62012H6.27509C6.39445 6.62012 6.49211 6.71777 6.49211 6.83713V8.67141Z" fill="#91E0E8"/>
<path d="M10.7157 8.67141C10.7157 8.79076 10.6181 8.88842 10.4987 8.88842H7.41306C7.2937 8.88842 7.19604 8.79076 7.19604 8.67141V6.83713C7.19604 6.71777 7.2937 6.62012 7.41306 6.62012H10.4987C10.6181 6.62012 10.7157 6.71777 10.7157 6.83713V8.67141Z" fill="#91E0E8"/>
<path d="M14.9394 8.67141C14.9394 8.79076 14.8417 8.88842 14.7224 8.88842H11.6367C11.5173 8.88842 11.4197 8.79076 11.4197 8.67141V6.83713C11.4197 6.71777 11.5173 6.62012 11.6367 6.62012H14.7224C14.8417 6.62012 14.9394 6.71777 14.9394 6.83713V8.67141Z" fill="#91E0E8"/>
<path d="M19.163 8.67141C19.163 8.79076 19.0653 8.88842 18.946 8.88842H15.8603C15.741 8.88842 15.6433 8.79076 15.6433 8.67141V6.83713C15.6433 6.71777 15.741 6.62012 15.8603 6.62012H18.946C19.0653 6.62012 19.163 6.71777 19.163 6.83713V8.67141Z" fill="#FFC987"/>
<path d="M6.49211 11.5655C6.49211 11.6848 6.39445 11.7825 6.27509 11.7825H3.18943C3.07007 11.7825 2.97241 11.6848 2.97241 11.5655V9.73117C2.97241 9.61182 3.07007 9.51416 3.18943 9.51416H6.27509C6.39445 9.51416 6.49211 9.61182 6.49211 9.73117V11.5655Z" fill="#91E0E8"/>
<path d="M10.7157 11.5655C10.7157 11.6848 10.6181 11.7825 10.4987 11.7825H7.41306C7.2937 11.7825 7.19604 11.6848 7.19604 11.5655V9.73117C7.19604 9.61182 7.2937 9.51416 7.41306 9.51416H10.4987C10.6181 9.51416 10.7157 9.61182 10.7157 9.73117V11.5655Z" fill="#91E0E8"/>
<path d="M14.9394 11.5655C14.9394 11.6848 14.8417 11.7825 14.7224 11.7825H11.6367C11.5173 11.7825 11.4197 11.6848 11.4197 11.5655V9.73117C11.4197 9.61182 11.5173 9.51416 11.6367 9.51416H14.7224C14.8417 9.51416 14.9394 9.61182 14.9394 9.73117V11.5655Z" fill="#91E0E8"/>
<path d="M17.5339 11.305C18.1059 11.305 18.6537 11.4103 19.1593 11.6017C19.1613 11.5899 19.163 11.578 19.163 11.5655V9.73117C19.163 9.61182 19.0653 9.51416 18.946 9.51416H15.8603C15.741 9.51416 15.6433 9.61182 15.6433 9.73117V11.5655C15.6433 11.6133 15.6594 11.657 15.6857 11.6929C16.2518 11.4437 16.8769 11.305 17.5339 11.305Z" fill="#FFC987"/>
<path d="M6.49211 14.4595C6.49211 14.5789 6.39445 14.6765 6.27509 14.6765H3.18943C3.07007 14.6765 2.97241 14.5789 2.97241 14.4595V12.6252C2.97241 12.5059 3.07007 12.4082 3.18943 12.4082H6.27509C6.39445 12.4082 6.49211 12.5059 6.49211 12.6252V14.4595Z" fill="#91E0E8"/>
<path d="M10.7157 14.4595C10.7157 14.5789 10.6181 14.6765 10.4987 14.6765H7.41306C7.2937 14.6765 7.19604 14.5789 7.19604 14.4595V12.6252C7.19604 12.5059 7.2937 12.4082 7.41306 12.4082H10.4987C10.6181 12.4082 10.7157 12.5059 10.7157 12.6252V14.4595Z" fill="#91E0E8"/>
<path d="M14.5482 12.4082H11.6367C11.5173 12.4082 11.4197 12.5059 11.4197 12.6252V14.4595C11.4197 14.5789 11.5173 14.6765 11.6367 14.6765H13.0997C13.3482 13.7817 13.8609 12.9957 14.5482 12.4082Z" fill="#91E0E8"/>
<path d="M6.49211 17.3533C6.49211 17.4726 6.39445 17.5703 6.27509 17.5703H3.18943C3.07007 17.5703 2.97241 17.4726 2.97241 17.3533V15.519C2.97241 15.3997 3.07007 15.302 3.18943 15.302H6.27509C6.39445 15.302 6.49211 15.3997 6.49211 15.519V17.3533Z" fill="#91E0E8"/>
<path d="M10.7157 17.3533C10.7157 17.4726 10.6181 17.5703 10.4987 17.5703H7.41306C7.2937 17.5703 7.19604 17.4726 7.19604 17.3533V15.519C7.19604 15.3997 7.2937 15.302 7.41306 15.302H10.4987C10.6181 15.302 10.7157 15.3997 10.7157 15.519V17.3533Z" fill="#91E0E8"/>
<path d="M12.9325 15.9062C12.9325 15.7014 12.9461 15.4999 12.9722 15.302H11.6367C11.5173 15.302 11.4197 15.3997 11.4197 15.519V17.3533C11.4197 17.4726 11.5173 17.5703 11.6367 17.5703H13.244C13.043 17.0541 12.9325 16.4929 12.9325 15.9062Z" fill="#91E0E8"/>
<path d="M3.25515 1.81714C3.07526 1.81714 2.92963 1.96278 2.92963 2.14266V3.93387C2.92963 4.11359 3.07526 4.25939 3.25515 4.25939C3.43503 4.25939 3.58067 4.11359 3.58067 3.93387V2.14266C3.58067 1.96278 3.43503 1.81714 3.25515 1.81714Z" fill="#C3DDF4"/>
<path d="M4.81759 1.81714C4.6377 1.81714 4.49207 1.96278 4.49207 2.14266V3.93387C4.49207 4.11359 4.6377 4.25939 4.81759 4.25939C4.99747 4.25939 5.14311 4.11359 5.14311 3.93387V2.14266C5.14311 1.96278 4.99747 1.81714 4.81759 1.81714Z" fill="#C3DDF4"/>
<path d="M6.38009 1.81714C6.2002 1.81714 6.05457 1.96278 6.05457 2.14266V3.93387C6.05457 4.11359 6.2002 4.25939 6.38009 4.25939C6.55997 4.25939 6.70561 4.11359 6.70561 3.93387V2.14266C6.70561 1.96278 6.55997 1.81714 6.38009 1.81714Z" fill="#C3DDF4"/>
<path d="M7.94259 1.81714C7.7627 1.81714 7.61707 1.96278 7.61707 2.14266V3.93387C7.61707 4.11359 7.7627 4.25939 7.94259 4.25939C8.12247 4.25939 8.26811 4.11359 8.26811 3.93387V2.14266C8.26811 1.96278 8.12247 1.81714 7.94259 1.81714Z" fill="#C3DDF4"/>
<path d="M9.50509 1.81714C9.3252 1.81714 9.17957 1.96278 9.17957 2.14266V3.93387C9.17957 4.11359 9.3252 4.25939 9.50509 4.25939C9.68497 4.25939 9.83061 4.11359 9.83061 3.93387V2.14266C9.83061 1.96278 9.68497 1.81714 9.50509 1.81714Z" fill="#C3DDF4"/>
<path d="M11.0676 1.81714C10.8877 1.81714 10.7421 1.96278 10.7421 2.14266V3.93387C10.7421 4.11359 10.8877 4.25939 11.0676 4.25939C11.2475 4.25939 11.3931 4.11359 11.3931 3.93387V2.14266C11.3931 1.96278 11.2475 1.81714 11.0676 1.81714Z" fill="#C3DDF4"/>
<path d="M12.6301 1.81714C12.4502 1.81714 12.3046 1.96278 12.3046 2.14266V3.93387C12.3046 4.11359 12.4502 4.25939 12.6301 4.25939C12.81 4.25939 12.9556 4.11359 12.9556 3.93387V2.14266C12.9556 1.96278 12.81 1.81714 12.6301 1.81714Z" fill="#C3DDF4"/>
<path d="M14.1926 1.81714C14.0127 1.81714 13.8671 1.96278 13.8671 2.14266V3.93387C13.8671 4.11359 14.0127 4.25939 14.1926 4.25939C14.3725 4.25939 14.5181 4.11359 14.5181 3.93387V2.14266C14.5181 1.96278 14.3725 1.81714 14.1926 1.81714Z" fill="#C3DDF4"/>
<path d="M15.7551 1.81714C15.5752 1.81714 15.4296 1.96278 15.4296 2.14266V3.93387C15.4296 4.11359 15.5752 4.25939 15.7551 4.25939C15.935 4.25939 16.0806 4.11359 16.0806 3.93387V2.14266C16.0806 1.96278 15.935 1.81714 15.7551 1.81714Z" fill="#C3DDF4"/>
<path d="M17.3176 1.81714C17.1377 1.81714 16.9921 1.96278 16.9921 2.14266V3.93387C16.9921 4.11359 17.1377 4.25939 17.3176 4.25939C17.4975 4.25939 17.6431 4.11359 17.6431 3.93387V2.14266C17.6431 1.96278 17.4975 1.81714 17.3176 1.81714Z" fill="#C3DDF4"/>
<path d="M18.8801 1.81714C18.7002 1.81714 18.5546 1.96278 18.5546 2.14266V3.93387C18.5546 4.11359 18.7002 4.25939 18.8801 4.25939C19.06 4.25939 19.2056 4.11359 19.2056 3.93387V2.14266C19.2056 1.96278 19.06 1.81714 18.8801 1.81714Z" fill="#C3DDF4"/>
<path d="M22.1788 15.9062C22.1788 18.4716 20.0992 20.5512 17.5338 20.5512C14.9686 20.5512 12.889 18.4716 12.889 15.9062C12.889 13.3411 14.9686 11.2615 17.5338 11.2615C20.0992 11.2615 22.1788 13.3411 22.1788 15.9062Z" fill="#1A2B63"/>
<path d="M17.5338 19.336C15.6427 19.336 14.1043 17.7975 14.1043 15.9063C14.1043 14.0152 15.6427 12.4768 17.5338 12.4768C19.425 12.4768 20.9635 14.0152 20.9635 15.9063C20.9635 17.7975 19.425 19.336 17.5338 19.336Z" fill="white"/>
<path d="M14.7555 15.9063C14.7555 14.1251 16.1205 12.6572 17.8595 12.4927C17.7522 12.4826 17.6437 12.4768 17.534 12.4768C15.6429 12.4768 14.1043 14.0152 14.1043 15.9065C14.1043 17.7975 15.6427 19.336 17.534 19.336C17.6437 19.336 17.7522 19.3302 17.8595 19.3202C16.1205 19.1556 14.7555 17.6877 14.7555 15.9063Z" fill="#EEF6FF"/>
<path d="M17.5338 12.4768V15.1964C17.9255 15.1964 18.2439 15.5148 18.2439 15.9063H20.9633C20.9635 14.0152 19.4251 12.4768 17.5338 12.4768Z" fill="#FFDD8D"/>
<path d="M17.5338 15.1965C17.6513 15.1965 17.7618 15.2255 17.8593 15.2762V13.4806C17.8593 13.3007 17.7137 13.155 17.5338 13.155C17.3541 13.155 17.2083 13.3007 17.2083 13.4806V15.2762C17.3059 15.2255 17.4164 15.1965 17.5338 15.1965Z" fill="#0F9390"/>
<path d="M19.415 15.5808H18.1642C18.2149 15.6785 18.2439 15.789 18.2439 15.9063C18.2439 16.0238 18.2149 16.1344 18.1642 16.2319H19.415C19.5947 16.2319 19.7405 16.0862 19.7405 15.9063C19.7405 15.7266 19.5947 15.5808 19.415 15.5808Z" fill="#0F9390"/>
<path d="M17.5338 16.6598C17.1184 16.6598 16.7805 16.3219 16.7805 15.9065C16.7805 15.491 17.1184 15.1531 17.5338 15.1531C17.9493 15.1531 18.2872 15.491 18.2872 15.9065C18.2872 16.3219 17.9493 16.6598 17.5338 16.6598Z" fill="#2BB381"/>
<path d="M17.5338 19.0105C17.3541 19.0105 17.2083 18.8648 17.2083 18.685V18.3377C17.2083 18.1578 17.3541 18.0122 17.5338 18.0122C17.7137 18.0122 17.8593 18.1578 17.8593 18.3377V18.685C17.8593 18.8648 17.7137 19.0105 17.5338 19.0105Z" fill="#60D882"/>
<path d="M15.5692 18.1965C15.486 18.1965 15.4027 18.1648 15.339 18.1012C15.212 17.9741 15.212 17.7679 15.3392 17.6408L15.5847 17.3953C15.7118 17.2683 15.9178 17.2683 16.045 17.3954C16.1721 17.5226 16.1721 17.7286 16.045 17.8557L15.7995 18.1012C15.7359 18.1648 15.6526 18.1965 15.5692 18.1965Z" fill="#60D882"/>
<path d="M15.1026 16.2321H14.7554C14.5757 16.2319 14.4299 16.0863 14.4299 15.9064C14.43 15.7267 14.5757 15.5811 14.7554 15.5811H14.7556H15.1026C15.2825 15.5811 15.4281 15.7269 15.4281 15.9066C15.4281 16.0865 15.2823 16.2321 15.1026 16.2321Z" fill="#60D882"/>
<path d="M15.8147 14.5128C15.7313 14.5128 15.6481 14.481 15.5845 14.4174L15.339 14.1719C15.212 14.0447 15.212 13.8386 15.3392 13.7116C15.4663 13.5844 15.6723 13.5844 15.7995 13.7116L16.045 13.9571C16.172 14.0844 16.172 14.2904 16.0448 14.4176C15.9814 14.4811 15.898 14.5128 15.8147 14.5128Z" fill="#60D882"/>
<path d="M19.4987 18.1964C19.4153 18.1964 19.332 18.1647 19.2685 18.101L19.023 17.8555C18.8958 17.7283 18.896 17.5222 19.0231 17.3952C19.1501 17.268 19.3563 17.268 19.4834 17.3952L19.7289 17.6408C19.8559 17.768 19.8559 17.9742 19.7288 18.1011C19.6652 18.1647 19.5819 18.1964 19.4987 18.1964Z" fill="#60D882"/>
<path d="M4.53556 8.44726C4.43672 8.44726 4.34313 8.40233 4.28142 8.32519L3.56527 7.43001C3.45286 7.28963 3.47575 7.08465 3.61613 6.97242C3.75651 6.86001 3.96132 6.8829 4.07356 7.02328L4.53556 7.60074L5.71371 6.1281C5.82595 5.98772 6.03092 5.96483 6.1713 6.07723C6.31168 6.18947 6.3344 6.39445 6.22216 6.53483L4.78987 8.32519C4.72799 8.40233 4.6344 8.44726 4.53556 8.44726Z" fill="#02AF8E"/>
<path d="M4.53556 14.1927C4.43672 14.1927 4.34313 14.1478 4.28142 14.0705L3.56527 13.1753C3.45286 13.0349 3.47575 12.8301 3.61613 12.7178C3.75651 12.6054 3.96132 12.6282 4.07356 12.7685L4.53556 13.346L5.71371 11.8734C5.82595 11.733 6.03092 11.7103 6.1713 11.8227C6.31168 11.9349 6.3344 12.1397 6.22216 12.2801L4.78987 14.0705C4.72799 14.1478 4.6344 14.1927 4.53556 14.1927Z" fill="#02AF8E"/>
<path d="M8.78903 11.3389C8.69019 11.3389 8.5966 11.294 8.53489 11.2167L7.81874 10.3215C7.70634 10.1811 7.72905 9.97632 7.8696 9.86408C8.00999 9.75168 8.21479 9.7744 8.32703 9.91478L8.78903 10.4922L9.96718 9.01959C10.0796 8.87921 10.2844 8.8565 10.4248 8.9689C10.5652 9.08114 10.5879 9.28595 10.4756 9.42633L9.04334 11.2167C8.98146 11.294 8.88787 11.3389 8.78903 11.3389Z" fill="#02AF8E"/>
</g>
<defs>
<clipPath id="clip0_16346_8495">
<rect width="22.2222" height="22.1788" fill="white"/>
</clipPath>
</defs>
</svg>
