<svg width="30" height="30" viewBox="0 0 30 30" fill="none" xmlns="http://www.w3.org/2000/svg">
<path d="M21.8408 3.57298C21.6342 3.39685 21.3918 3.26772 21.1303 3.19456C20.8688 3.12139 20.5946 3.10592 20.3265 3.14923L4.76533 5.65916C3.95771 5.78654 3.22234 6.19873 2.69221 6.82118C2.16209 7.44363 1.87221 8.23525 1.87502 9.05285V10.6251C1.87502 10.7909 1.94087 10.9498 2.05808 11.067C2.1753 11.1843 2.33427 11.2501 2.50004 11.2501H21.875C22.0408 11.2501 22.1997 11.1843 22.317 11.067C22.4342 10.9498 22.5 10.7909 22.5 10.6251V5.00044C22.5003 4.72894 22.4414 4.46063 22.3276 4.21414C22.2138 3.96765 22.0477 3.74887 21.8408 3.57298Z" fill="url(#paint0_linear_16346_8772)"/>
<path d="M23.75 8.125H3.75C3.25289 8.12554 2.77629 8.32326 2.42477 8.67477C2.07326 9.02629 1.87554 9.50289 1.875 10V23.75C1.87602 24.5784 2.20559 25.3727 2.79141 25.9585C3.37724 26.5444 4.17149 26.874 4.99998 26.875H23.75C24.5785 26.874 25.3727 26.5444 25.9586 25.9586C26.5444 25.3727 26.874 24.5785 26.875 23.75V11.25C26.8741 10.4215 26.5445 9.62715 25.9587 9.04131C25.3728 8.45547 24.5785 8.12593 23.75 8.125Z" fill="url(#paint1_linear_16346_8772)"/>
<path d="M26.8751 13.125H18.7501C17.9236 13.1286 17.1322 13.4594 16.5491 14.0451C15.9659 14.6307 15.6385 15.4235 15.6385 16.25C15.6385 17.0765 15.9659 17.8693 16.5491 18.455C17.1322 19.0406 17.9236 19.3714 18.7501 19.375H26.8751C27.2065 19.3746 27.5242 19.2428 27.7586 19.0085C27.9929 18.7741 28.1247 18.4564 28.1251 18.125V14.375C28.1247 14.0436 27.9929 13.7258 27.7586 13.4915C27.5242 13.2572 27.2065 13.1254 26.8751 13.125Z" fill="url(#paint2_linear_16346_8772)"/>
<path d="M18.75 17.5C19.4403 17.5 20 16.9403 20 16.25C20 15.5596 19.4403 15 18.75 15C18.0596 15 17.5 15.5596 17.5 16.25C17.5 16.9403 18.0596 17.5 18.75 17.5Z" fill="url(#paint3_linear_16346_8772)"/>
<defs>
<linearGradient id="paint0_linear_16346_8772" x1="3.18084" y1="7.18775" x2="22.2511" y2="7.18775" gradientUnits="userSpaceOnUse">
<stop stop-color="#37AA79"/>
<stop offset="1" stop-color="#398A70"/>
</linearGradient>
<linearGradient id="paint1_linear_16346_8772" x1="3.85881" y1="17.5" x2="27.1704" y2="17.5" gradientUnits="userSpaceOnUse">
<stop stop-color="#34CA82"/>
<stop offset="1" stop-color="#37A477"/>
</linearGradient>
<linearGradient id="paint2_linear_16346_8772" x1="16.6281" y1="16.25" x2="28.2723" y2="16.25" gradientUnits="userSpaceOnUse">
<stop stop-color="#FED200"/>
<stop offset="1" stop-color="#F59815"/>
</linearGradient>
<linearGradient id="paint3_linear_16346_8772" x1="17.4693" y1="16.25" x2="19.9314" y2="16.25" gradientUnits="userSpaceOnUse">
<stop stop-color="white"/>
<stop offset="1" stop-color="#F2EBE6"/>
</linearGradient>
</defs>
</svg>
