<svg width="20" height="20" viewBox="0 0 20 20" fill="none" xmlns="http://www.w3.org/2000/svg">
<g clip-path="url(#clip0_16346_8662)">
<path d="M10.8939 3.125H9.64392V1.25L10.2689 0.625L10.8939 1.25V3.125Z" fill="#60B7FF"/>
<path d="M7.39626 4.05598L6.5124 4.93984L5.32884 3.75629C5.25025 3.6777 5.25025 3.55031 5.32884 3.47176L5.92818 2.87242C6.00677 2.79383 6.13416 2.79383 6.21271 2.87242L7.39626 4.05598Z" fill="#EE6161"/>
<path d="M13.1415 4.05598L14.0254 4.93984L15.209 3.75629C15.2876 3.6777 15.2876 3.55031 15.209 3.47176L14.6096 2.87242C14.531 2.79383 14.4036 2.79383 14.3251 2.87242L13.1415 4.05598Z" fill="#60B7FF"/>
<path d="M10.2689 13.125C13.2029 13.125 15.5814 10.7465 15.5814 7.8125C15.5814 4.87849 13.2029 2.5 10.2689 2.5C7.33491 2.5 4.95642 4.87849 4.95642 7.8125C4.95642 10.7465 7.33491 13.125 10.2689 13.125Z" fill="#8AC9FE"/>
<path d="M10.2689 11.875C12.5126 11.875 14.3314 10.0562 14.3314 7.8125C14.3314 5.56884 12.5126 3.75 10.2689 3.75C8.02526 3.75 6.20642 5.56884 6.20642 7.8125C6.20642 10.0562 8.02526 11.875 10.2689 11.875Z" fill="#EAF6FF"/>
<path d="M12.8239 4.65381C13.3891 5.35174 13.7277 6.24072 13.7277 7.20881C13.7277 9.45248 11.9089 11.2713 9.66523 11.2713C8.69714 11.2713 7.80816 10.9327 7.11023 10.3674C7.85507 11.2871 8.99332 11.8749 10.2689 11.8749C12.5126 11.8749 14.3314 10.0561 14.3314 7.81244C14.3314 6.53686 13.7435 5.39861 12.8239 4.65381Z" fill="#D8ECFE"/>
<path d="M11.3177 1.25H9.22013C9.109 1.25 9.01892 1.15992 9.01892 1.04879V0.201211C9.01892 0.0900781 9.109 0 9.22013 0H11.3177C11.4288 0 11.5189 0.0900781 11.5189 0.201211V1.04879C11.5189 1.15992 11.4288 1.25 11.3177 1.25Z" fill="#C4E2FF"/>
<path d="M11.7689 9.375H18.776C18.8656 9.375 18.9106 9.48336 18.8472 9.54676L17.1439 11.25L13.3939 11.875L9.64392 11.25L11.3421 9.5518C11.4553 9.43859 11.6088 9.375 11.7689 9.375Z" fill="#ECA026"/>
<path d="M7.51885 9.375H1.61967C1.53006 9.375 1.48514 9.48336 1.54853 9.54676L3.25178 11.25L5.89385 11.875L9.64385 11.25L7.94564 9.5518C7.83248 9.43859 7.67893 9.375 7.51885 9.375Z" fill="#FEB237"/>
<path d="M16.9427 20H9.64392L9.01892 13.75L9.64392 11.25H17.1439V19.7988C17.1439 19.9099 17.0538 20 16.9427 20Z" fill="#FEB237"/>
<path d="M15.7933 18.75H14.1195C14.064 18.75 14.0189 18.7049 14.0189 18.6494V17.6006C14.0189 17.545 14.064 17.5 14.1195 17.5H15.7933C15.8488 17.5 15.8939 17.545 15.8939 17.6006V18.6494C15.8939 18.7049 15.8488 18.75 15.7933 18.75Z" fill="#EAF6FF"/>
<path d="M3.45304 20H9.6439V11.25H3.25183V19.7988C3.25183 19.9099 3.34195 20 3.45304 20Z" fill="#FFC344"/>
<path d="M4.87047 13.814L3.18325 15.5012C3.14059 15.5439 3.07145 15.5439 3.02879 15.5012L2.14657 14.619C2.06125 14.5337 1.92297 14.5337 1.8377 14.619L1.18715 15.2695C1.10184 15.3548 1.10184 15.4931 1.18715 15.5784L2.95161 17.3429C3.03692 17.4282 3.1752 17.4282 3.26047 17.3429L5.82993 14.7734C5.91524 14.6881 5.91524 14.5498 5.82993 14.4645L5.17938 13.814C5.09407 13.7287 4.95579 13.7287 4.87047 13.814Z" fill="#46CC8D"/>
<path d="M9.9671 0H10.5707V1.25H9.9671V0Z" fill="#B3DAFE"/>
<path d="M10.2689 5.92684C10.1022 5.92684 9.9671 5.79172 9.9671 5.62504V5.00004C9.9671 4.83332 10.1022 4.69824 10.2689 4.69824C10.4356 4.69824 10.5707 4.83336 10.5707 5.00004V5.62504C10.5707 5.79176 10.4356 5.92684 10.2689 5.92684Z" fill="#554E56"/>
<path d="M10.3939 7.98939C10.3166 7.98939 10.2394 7.9599 10.1805 7.901C10.0626 7.78311 10.0626 7.59205 10.1805 7.47412L12.0442 5.61033C12.1621 5.49252 12.3532 5.49252 12.4711 5.61033C12.589 5.72822 12.589 5.91928 12.4711 6.03721L10.6073 7.901C10.5483 7.95994 10.4711 7.98939 10.3939 7.98939Z" fill="#E94444"/>
<path d="M13.0814 8.11434H12.4564C12.2897 8.11434 12.1546 7.97922 12.1546 7.81254C12.1546 7.64586 12.2897 7.51074 12.4564 7.51074H13.0814C13.2481 7.51074 13.3832 7.64586 13.3832 7.81254C13.3832 7.97922 13.2481 8.11434 13.0814 8.11434Z" fill="#554E56"/>
<path d="M8.72206 6.56757C8.64484 6.56757 8.56757 6.53808 8.50866 6.47913L8.06675 6.03718C7.94886 5.91933 7.94886 5.72823 8.06675 5.61034C8.18464 5.49249 8.37573 5.49253 8.49359 5.61038L8.9355 6.05233C9.05339 6.17019 9.05335 6.36128 8.9355 6.47917C8.87655 6.53808 8.79929 6.56757 8.72206 6.56757Z" fill="#554E56"/>
<path d="M8.0814 8.11434H7.4564C7.28972 8.11434 7.1546 7.97922 7.1546 7.81254C7.1546 7.64586 7.28972 7.51074 7.4564 7.51074H8.0814C8.24808 7.51074 8.3832 7.64586 8.3832 7.81254C8.3832 7.97922 8.24808 8.11434 8.0814 8.11434Z" fill="#554E56"/>
<path d="M10.2689 8.4375C10.6141 8.4375 10.8939 8.15768 10.8939 7.8125C10.8939 7.46732 10.6141 7.1875 10.2689 7.1875C9.92374 7.1875 9.64392 7.46732 9.64392 7.8125C9.64392 8.15768 9.92374 8.4375 10.2689 8.4375Z" fill="#EE6161"/>
</g>
<defs>
<clipPath id="clip0_16346_8662">
<rect width="20" height="20" fill="white"/>
</clipPath>
</defs>
</svg>
