<svg width="23" height="20" viewBox="0 0 23 20" fill="none" xmlns="http://www.w3.org/2000/svg">
<path d="M17.8385 5.19336H5.16152C2.31527 5.19336 0 7.50908 0 10.3553C0 13.2011 2.31527 15.5169 5.16152 15.5169H17.8385C20.6847 15.5169 23 13.2011 23 10.3553C23 7.50908 20.6847 5.19336 17.8385 5.19336ZM20.3047 11.0287H8.43229C8.13805 12.0624 7.1866 12.8215 6.05996 12.8215C4.93377 12.8215 3.98187 12.0624 3.68809 11.0287H2.69531C2.32336 11.0287 2.02148 10.7268 2.02148 10.3549C2.02148 9.98293 2.32336 9.68106 2.69531 9.68106H3.68809C3.98232 8.64785 4.93377 7.88867 6.05996 7.88867C7.18615 7.88867 8.13805 8.64785 8.43229 9.68106H20.3047C20.6766 9.68106 20.9785 9.98293 20.9785 10.3549C20.9785 10.7268 20.6766 11.0287 20.3047 11.0287Z" fill="#008FF5"/>
<path d="M7.17896 10.3553C7.17896 10.9721 6.67674 11.4739 6.05996 11.4739C5.44318 11.4739 4.94141 10.9721 4.94141 10.3553C4.94141 9.73811 5.44318 9.23633 6.05996 9.23633C6.67674 9.23633 7.17896 9.73811 7.17896 10.3553Z" fill="black"/>
<path d="M5.31372 16.968C4.94159 16.968 4.63989 17.2697 4.63989 17.6418V18.886C4.63989 19.2581 4.94159 19.5598 5.31372 19.5598C5.68585 19.5598 5.98755 19.2581 5.98755 18.886V17.6418C5.98755 17.2697 5.68585 16.968 5.31372 16.968Z" fill="#FF8F2D"/>
<path d="M2.22052 16.968C1.84839 16.968 1.54669 17.2697 1.54669 17.6418V18.886C1.54669 19.2581 1.84839 19.5598 2.22052 19.5598C2.59265 19.5598 2.89435 19.2581 2.89435 18.886V17.6418C2.89435 17.2697 2.59265 16.968 2.22052 16.968Z" fill="#FF8F2D"/>
<path d="M8.40686 16.968C8.03473 16.968 7.73303 17.2697 7.73303 17.6418V18.886C7.73303 19.2581 8.03473 19.5598 8.40686 19.5598C8.77899 19.5598 9.08069 19.2581 9.08069 18.886V17.6418C9.08069 17.2697 8.77899 16.968 8.40686 16.968Z" fill="#FF8F2D"/>
<path d="M11.5 16.968C11.1279 16.968 10.8262 17.2697 10.8262 17.6418V18.886C10.8262 19.2581 11.1279 19.5598 11.5 19.5598C11.8721 19.5598 12.1738 19.2581 12.1738 18.886V17.6418C12.1738 17.2697 11.8721 16.968 11.5 16.968Z" fill="#FF8F2D"/>
<path d="M14.5931 16.968C14.221 16.968 13.9193 17.2697 13.9193 17.6418V18.886C13.9193 19.2581 14.221 19.5598 14.5931 19.5598C14.9653 19.5598 15.267 19.2581 15.267 18.886V17.6418C15.267 17.2697 14.9653 16.968 14.5931 16.968Z" fill="#FF8F2D"/>
<path d="M17.6863 16.968C17.3141 16.968 17.0125 17.2697 17.0125 17.6418V18.886C17.0125 19.2581 17.3141 19.5598 17.6863 19.5598C18.0584 19.5598 18.3601 19.2581 18.3601 18.886V17.6418C18.3601 17.2697 18.0584 16.968 17.6863 16.968Z" fill="#FF8F2D"/>
<path d="M20.7795 16.968C20.4073 16.968 20.1057 17.2697 20.1057 17.6418V18.886C20.1057 19.2581 20.4073 19.5598 20.7795 19.5598C21.1516 19.5598 21.4533 19.2581 21.4533 18.886V17.6418C21.4533 17.2697 21.1516 16.968 20.7795 16.968Z" fill="#FF8F2D"/>
<path d="M22.8027 1.66246L21.3375 0.197331C21.0744 -0.0657769 20.6478 -0.0657769 20.3846 0.197331C20.1215 0.460438 20.1215 0.887106 20.3846 1.15026L20.6996 1.46521H2.30073L2.61568 1.15026C2.87883 0.887151 2.87883 0.460483 2.61568 0.197331C2.35257 -0.0657769 1.9259 -0.0657769 1.66275 0.197331L0.197623 1.66246C-0.067731 1.92768 -0.0631939 2.35488 0.197623 2.61561L1.66275 4.08069C1.92581 4.34384 2.35248 4.34389 2.61568 4.08069C2.87883 3.81754 2.87883 3.39092 2.61568 3.12776L2.30077 2.81286H20.6996L20.3847 3.12776C20.1215 3.39087 20.1215 3.8175 20.3847 4.08069C20.6477 4.34384 21.0744 4.34389 21.3376 4.08069L22.8027 2.61561C23.0677 2.35066 23.0637 1.92336 22.8027 1.66246Z" fill="#189200"/>
</svg>
