<svg width="26" height="26" viewBox="0 0 26 26" fill="none" xmlns="http://www.w3.org/2000/svg">
<path d="M13 10.4229L14.4254 14.9932L13 25.1819H10.7148V11.1846C10.7148 10.7636 11.0561 10.4229 11.4766 10.4229H13Z" fill="#33FFBB"/>
<path d="M15.2852 11.1846V25.1819H13V10.4229H14.5234C14.9439 10.4229 15.2852 10.7636 15.2852 11.1846Z" fill="#29CC95"/>
<path d="M12.9998 3.31641L13.5785 4.87331L12.9998 5.36746L8.80073 11.125C8.65753 11.3221 8.4285 11.4384 8.18526 11.4384H0.955536V9.91492H7.7978L12.3844 3.62617C12.5266 3.41949 12.7632 3.31641 12.9998 3.31641Z" fill="#66E6FF"/>
<path d="M6.90625 25.1821L8.41202 19.9802C8.41202 19.5592 7.3257 14.9932 6.90523 14.9932H5.38281C4.96234 14.9932 4.62109 15.3339 4.62109 15.7549V25.1822H6.90625V25.1821Z" fill="#FFE14D"/>
<path d="M9.19147 25.1822V15.7549C9.19147 15.3339 8.85022 14.9932 8.42975 14.9932H6.90529C6.90529 18.3581 6.88635 25.1822 6.88635 25.1822H9.19147Z" fill="#FFBB33"/>
<path d="M19.0938 25.1821L20.573 19.9802C20.573 19.5592 19.5132 14.9932 19.0927 14.9932H17.5703C17.1498 14.9932 16.8086 15.3339 16.8086 15.7549V25.1822H19.0938V25.1821Z" fill="#FF6666"/>
<path d="M21.379 25.1822V15.7549C21.379 15.3339 21.0377 14.9932 20.6172 14.9932H19.0928C19.0928 18.3581 19.0739 25.1822 19.0739 25.1822H21.379Z" fill="#E62E6B"/>
<path d="M13 24.4766L13.7445 25.2383L13 26H0.761719C0.34125 26 0 25.6588 0 25.2383V0.761719C0 0.34125 0.34125 0 0.761719 0C1.18219 0 1.52344 0.34125 1.52344 0.761719V24.4766H13Z" fill="#406080"/>
<path d="M25.7842 11.2068C25.7801 11.2119 25.775 11.2164 25.7705 11.2215L23.6168 13.3244C23.4686 13.4691 23.2766 13.5412 23.0846 13.5412C22.8866 13.5412 22.6891 13.464 22.5398 13.3112C22.2457 13.0105 22.2513 12.5281 22.5525 12.2341L23.368 11.4384H17.8146C17.5713 11.4384 17.3423 11.3221 17.1991 11.125L13 5.36746V3.31641C13.2366 3.31641 13.4733 3.41949 13.6155 3.62617L18.202 9.91492H23.3995L22.5966 9.11207C22.2996 8.81449 22.2996 8.33258 22.5966 8.035C22.8942 7.73742 23.3766 7.73742 23.6742 8.035L25.7771 10.1379C26.0675 10.4182 26.0726 10.9224 25.7842 11.2068Z" fill="#4DC3FF"/>
<path d="M26 25.2383C26 25.6587 25.6587 26 25.2383 26H13V24.4766H25.2383C25.6587 24.4766 26 24.8178 26 25.2383Z" fill="#284866"/>
</svg>
