<svg width="50" height="30" viewBox="0 0 50 30" fill="none" xmlns="http://www.w3.org/2000/svg">
<path d="M49.7312 10.2582L44.6852 15.7714L45.5158 23.2055C45.5573 23.5793 45.4016 23.9427 45.1005 24.1607C44.9136 24.2957 44.706 24.358 44.4879 24.358C44.3426 24.358 44.1972 24.3268 44.0622 24.2645L37.2407 21.1705L36.1609 21.6585L35.9533 19.8311L41.5704 13.6949C42.2971 12.885 42.5256 11.7844 42.1933 10.7358C41.8611 9.69751 40.9889 8.9188 39.9195 8.71114L32.174 7.12258L32.6516 7.02913L36.3374 0.529522C36.5243 0.197274 36.867 0 37.2407 0C37.6145 0 37.9572 0.197274 38.144 0.529522L41.6638 7.02913L48.994 8.53464C49.5339 8.60732 49.835 8.87727 49.9492 9.23028C50.0635 9.58329 49.9804 9.97784 49.7312 10.2582Z" fill="#FF8200"/>
<path d="M8.45004 13.7156L14.0463 19.8311L13.8387 21.6585L12.7589 21.1705L5.93741 24.2645C5.80243 24.3268 5.65707 24.358 5.51171 24.358C5.29367 24.358 5.08602 24.2957 4.89913 24.1607C4.59803 23.9427 4.44229 23.5793 4.48382 23.2055L5.31444 15.7714L0.268412 10.2582C0.0192258 9.97784 -0.0638364 9.58329 0.0503741 9.23028C0.164585 8.87727 0.465685 8.60732 0.829082 8.53464L8.15932 7.02913L11.8556 0.529522C12.0425 0.197274 12.3851 0 12.7589 0C13.1327 0 13.4753 0.197274 13.6622 0.529522L17.3481 7.02913L17.8257 7.12258L10.0801 8.70076C9.0107 8.9188 8.13855 9.6975 7.79592 10.7565C7.47406 11.7844 7.70248 12.885 8.45004 13.7156Z" fill="#FF8200"/>
<path d="M40.0243 12.3139L33.7842 19.1146L34.8225 28.293C34.864 28.6356 34.7187 28.9679 34.4383 29.1651C34.2722 29.2897 34.075 29.352 33.8777 29.352C33.7427 29.352 33.6077 29.3209 33.4935 29.269L25.0835 25.4481L16.6734 29.269C16.3723 29.4143 15.9986 29.3728 15.7286 29.1651C15.4483 28.9679 15.3133 28.6356 15.3444 28.293L16.3827 19.1146L10.1427 12.3139C9.91425 12.0543 9.84157 11.7013 9.9454 11.3794C10.0492 11.0576 10.3296 10.8084 10.6618 10.7461L19.7052 8.90835L24.2632 0.872086C24.6059 0.280268 25.5715 0.280268 25.9141 0.872086L30.4721 8.90835L39.5155 10.7461C39.8478 10.8084 40.1281 11.0576 40.2319 11.3794C40.3254 11.7117 40.2527 12.0647 40.0243 12.3139Z" fill="#FF8200"/>
</svg>
