<svg width="20" height="20" viewBox="0 0 20 20" fill="none" xmlns="http://www.w3.org/2000/svg">
<g clip-path="url(#clip0_16346_8708)">
<path fill-rule="evenodd" clip-rule="evenodd" d="M10 4.3938L14.8641 7.1977V12.8036L10 15.6063L5.13556 12.8036V7.1977L10 4.3938Z" fill="#FFD400"/>
<path fill-rule="evenodd" clip-rule="evenodd" d="M5.78243 13.1758L5.13556 12.8035V7.19766L5.78243 6.82422V13.1758Z" fill="#E6BF00"/>
<path fill-rule="evenodd" clip-rule="evenodd" d="M14.8641 7.19775V12.8036L10 15.6063V7.19775H14.8641Z" fill="#FFBF18"/>
<path fill-rule="evenodd" clip-rule="evenodd" d="M10 4.3938L14.8641 7.1977L10 10L5.13556 7.1977L10 4.3938Z" fill="#FEA832"/>
<path fill-rule="evenodd" clip-rule="evenodd" d="M11.8777 5.47583L12.9875 6.11567L8.12535 8.91724V10.8106L7.01129 10.1684V8.5981V8.28052L7.29137 8.1188L11.8777 5.47583Z" fill="#FF4646"/>
<path fill-rule="evenodd" clip-rule="evenodd" d="M1.15271 5.57852V1.74844C1.15271 1.64648 1.2113 1.55898 1.30544 1.52031C1.39958 1.48164 1.50154 1.50156 1.57341 1.57344L2.75818 2.75703C2.85232 2.85234 3.00623 2.85352 3.10271 2.76133C3.89451 2.00625 4.80701 1.38047 5.80896 0.917578C7.08552 0.326953 8.50623 -0.00195312 9.99998 -0.00195312C12.7625 -0.00195312 15.2629 1.11758 17.0734 2.92773C18.834 4.68828 19.9414 7.10313 20 9.77617C20.0023 9.83711 19.9812 9.89023 19.9379 9.93438C19.8945 9.97773 19.8426 9.99961 19.7808 9.99961H18.6316C18.5133 9.99961 18.4156 9.9043 18.4125 9.78594C18.357 7.54688 17.4269 5.525 15.9511 4.04922C14.4281 2.52695 12.3242 1.58594 9.99998 1.58594C8.73787 1.58594 7.54295 1.86172 6.47224 2.35664C5.64177 2.74102 4.88552 3.25352 4.23005 3.87031C4.18005 3.91797 4.15349 3.97656 4.15271 4.04648C4.15154 4.11641 4.17615 4.17617 4.22459 4.22461L5.40388 5.40391C5.47576 5.47578 5.49685 5.57891 5.45701 5.67305C5.41833 5.76719 5.33201 5.82461 5.23005 5.82461H1.39959C1.26326 5.82461 1.15271 5.71367 1.15271 5.57852Z" fill="#0593FC"/>
<path fill-rule="evenodd" clip-rule="evenodd" d="M18.8484 14.4227V18.2516C18.8484 18.3535 18.7898 18.441 18.6957 18.4797C18.6015 18.5195 18.4984 18.4984 18.4265 18.4266L17.243 17.243C17.1488 17.1477 16.9949 17.1465 16.8984 17.2387C16.1066 17.9938 15.1941 18.6195 14.1922 19.0824C12.9156 19.6738 11.4949 20.0027 9.99999 20.0027C7.23827 20.0027 4.73827 18.8832 2.92772 17.0738C1.16717 15.3117 0.058579 12.8977 -1.47769e-05 10.2246C-0.00118665 10.1625 0.0199071 10.1094 0.0632665 10.0664C0.105454 10.0223 0.158579 10 0.219516 10H1.36874C1.48827 10 1.58592 10.0953 1.58788 10.2137C1.64452 12.4527 2.57459 14.4746 4.05038 15.9504C5.57303 17.473 7.67655 18.4152 9.99999 18.4152C11.2621 18.4152 12.4582 18.1383 13.5289 17.6434C14.3594 17.259 15.1144 16.7465 15.7699 16.1297C15.8207 16.082 15.8473 16.0234 15.8484 15.9535C15.8496 15.8848 15.825 15.8238 15.7754 15.7754L14.5973 14.5961C14.5242 14.5242 14.5043 14.4211 14.543 14.327C14.5816 14.2328 14.6691 14.1754 14.7711 14.1754H18.6012C18.7375 14.1754 18.8484 14.2863 18.8484 14.4227Z" fill="#0593FC"/>
<path fill-rule="evenodd" clip-rule="evenodd" d="M1.15271 5.57852V1.74844C1.15271 1.64648 1.2113 1.55898 1.30544 1.52031C1.39958 1.48164 1.50154 1.50156 1.57341 1.57344L1.97419 1.97305V5.57852C1.97419 5.71367 2.08474 5.82422 2.2199 5.82422H1.39959C1.26326 5.82461 1.15271 5.71367 1.15271 5.57852ZM3.35271 2.53125C4.08357 1.87891 4.91052 1.3332 5.80857 0.917969C7.08552 0.326953 8.50623 -0.00195312 9.99998 -0.00195312C10.1375 -0.00195312 10.2746 0.000390625 10.4097 0.00585938C9.06677 0.0613281 7.78865 0.382422 6.62966 0.918359C5.62849 1.38125 4.71521 2.00664 3.92458 2.76211C3.82732 2.85391 3.67419 2.85273 3.57927 2.75781L3.35271 2.53125ZM19.4527 10H18.6312C18.5129 10 18.4152 9.90469 18.4121 9.78633C18.3566 7.54727 17.4265 5.52539 15.9508 4.04961C14.5179 2.6168 12.5703 1.69883 10.4097 1.5957C10.5461 1.58906 10.6832 1.58555 10.8215 1.58555C13.1457 1.58555 15.2484 2.52656 16.7718 4.04922C18.248 5.52539 19.1781 7.54727 19.2332 9.78594C19.2371 9.90469 19.3344 10 19.4527 10Z" fill="#0584E3"/>
<path fill-rule="evenodd" clip-rule="evenodd" d="M18.8484 18.0266V18.2512C18.8484 18.3531 18.7898 18.4406 18.6957 18.4793C18.6015 18.5191 18.4984 18.498 18.4265 18.4262L17.4699 17.4684C17.5539 17.393 17.6371 17.3168 17.7191 17.2379C17.8164 17.1461 17.9695 17.1473 18.0644 17.2422L18.8484 18.0266ZM10.4117 19.9945C10.2754 20 10.1383 20.0023 9.99999 20.0023C7.23827 20.0023 4.73827 18.8828 2.92772 17.0734C1.16717 15.3117 0.058579 12.8977 -1.47769e-05 10.2246C-0.00118665 10.1625 0.0199071 10.1094 0.0632665 10.0664C0.105454 10.0223 0.158579 10 0.219516 10H1.041C0.980063 10 0.926938 10.0223 0.883579 10.0664C0.841392 10.1098 0.820298 10.1629 0.82147 10.2246C0.880063 12.8977 1.98749 15.3113 3.7492 17.073C5.46913 18.793 7.81288 19.8891 10.4117 19.9945ZM10.4129 18.4055C11.5234 18.3523 12.5754 18.0844 13.5289 17.6437C14.3594 17.2594 15.1144 16.7469 15.7699 16.1301C15.8207 16.0824 15.8473 16.0238 15.8484 15.9539C15.8496 15.8852 15.825 15.8242 15.7754 15.7758L14.5973 14.5965C14.5242 14.5246 14.5043 14.4215 14.543 14.3273C14.5816 14.2332 14.6691 14.1758 14.7711 14.1758H15.5926C15.4906 14.1758 15.4031 14.2332 15.3644 14.3273C15.3258 14.4215 15.3457 14.5246 15.4176 14.5965L16.5969 15.7758C16.6457 15.8246 16.6699 15.8855 16.6687 15.9539C16.6676 16.0238 16.6422 16.0824 16.5914 16.1301C15.9359 16.7469 15.1797 17.2594 14.3492 17.6437C13.2797 18.1387 12.0836 18.4156 10.8215 18.4156C10.6844 18.4152 10.548 18.4109 10.4129 18.4055Z" fill="#0584E3"/>
</g>
<defs>
<clipPath id="clip0_16346_8708">
<rect width="20" height="20" fill="white"/>
</clipPath>
</defs>
</svg>
