<svg width="23" height="23" viewBox="0 0 23 23" fill="none" xmlns="http://www.w3.org/2000/svg">
<g clip-path="url(#clip0_16346_8476)">
<path fill-rule="evenodd" clip-rule="evenodd" d="M15.4788 13.4508C11.7934 13.4508 8.79474 10.4521 8.79474 6.76679C8.79474 3.08103 11.7934 0.0827637 15.4788 0.0827637C19.1645 0.0827637 22.1628 3.08103 22.1628 6.76679C22.1628 10.4521 19.1645 13.4508 15.4788 13.4508Z" fill="#FFA721"/>
<path fill-rule="evenodd" clip-rule="evenodd" d="M15.4788 1.12891C12.3702 1.12891 9.84073 3.65799 9.84073 6.76693C9.84073 9.87543 12.3702 12.4049 15.4788 12.4049C18.5877 12.4049 21.1168 9.87543 21.1168 6.76693C21.1168 3.65799 18.5877 1.12891 15.4788 1.12891Z" fill="#FFC738"/>
<path fill-rule="evenodd" clip-rule="evenodd" d="M15.4788 11.0448C14.1671 11.0448 13.0999 9.97748 13.0999 8.66585C13.0999 8.40066 13.3147 8.18538 13.5799 8.18538C13.8455 8.18538 14.0604 8.40066 14.0604 8.66585C14.0604 9.44797 14.6966 10.0843 15.4788 10.0843C16.2609 10.0843 16.8972 9.44797 16.8972 8.66585C16.8972 7.88373 16.2609 7.24702 15.4788 7.24702C14.1671 7.24702 13.0999 6.17974 13.0999 4.86811C13.0999 3.55604 14.1671 2.48877 15.4788 2.48877C16.7908 2.48877 17.8581 3.55604 17.8581 4.86811C17.8581 5.1333 17.6428 5.34814 17.3776 5.34814C17.1124 5.34814 16.8972 5.1333 16.8972 4.86811C16.8972 4.08599 16.2609 3.44971 15.4788 3.44971C14.6966 3.44971 14.0604 4.08599 14.0604 4.86811C14.0604 5.65023 14.6966 6.28651 15.4788 6.28651C16.7908 6.28651 17.8581 7.35379 17.8581 8.66585C17.8581 9.97748 16.7908 11.0448 15.4788 11.0448Z" fill="white"/>
<path fill-rule="evenodd" clip-rule="evenodd" d="M15.4788 11.5403C15.2136 11.5403 14.9987 11.325 14.9987 11.0598V2.47388C14.9987 2.20869 15.2136 1.99341 15.4788 1.99341C15.7439 1.99341 15.9592 2.20869 15.9592 2.47388V11.0598C15.9592 11.325 15.7439 11.5403 15.4788 11.5403Z" fill="white"/>
<path fill-rule="evenodd" clip-rule="evenodd" d="M14.7023 21.6337C13.9949 21.6337 12.4067 21.2383 9.17497 20.2809C8.72402 20.1472 8.36725 20.0417 8.1728 19.9896C7.7926 19.8876 7.16239 19.9393 6.86508 20.1763C6.75267 20.2661 6.58904 20.2479 6.49919 20.1355C6.40935 20.0231 6.42801 19.859 6.54043 19.7691C6.63201 19.6962 6.73921 19.635 6.8564 19.5856L4.8755 13.1424L4.90241 13.1589C4.80345 13.0882 4.72619 13.0322 4.67497 12.9944C4.5439 13.0313 4.40501 12.9601 4.35944 12.8299C4.31169 12.6945 4.38331 12.5456 4.51872 12.4979C7.12984 11.5808 7.97228 12.4549 8.86378 13.3798C9.34338 13.8772 9.8386 14.3911 10.6711 14.7053L15.1854 15.915C15.5782 16.02 15.9111 16.2622 16.1229 16.5964C16.3087 16.8894 16.3816 17.221 16.3351 17.5461L19.9059 15.6763C20.6251 15.2995 21.5639 15.5508 21.9983 16.237C22.2132 16.576 22.2761 16.9701 22.175 17.3468C22.0743 17.7236 21.823 18.0335 21.4671 18.2197L15.0639 21.5708C14.9853 21.612 14.8677 21.6337 14.7023 21.6337Z" fill="#FFE4AF"/>
<path fill-rule="evenodd" clip-rule="evenodd" d="M16.3442 17.246C16.3464 17.2703 16.3477 17.2946 16.3481 17.3189C16.3464 17.3597 16.3421 17.4005 16.3364 17.4413L16.3464 17.4366C16.3442 17.473 16.3403 17.5095 16.3351 17.5459C15.573 17.9431 13.6177 18.6527 10.8334 17.4596C10.7674 17.4318 10.737 17.3554 10.7648 17.2894C10.793 17.2235 10.8694 17.1926 10.9354 17.2204C13.8186 18.4561 15.7539 17.5885 16.3442 17.246Z" fill="#FFB98E"/>
<path fill-rule="evenodd" clip-rule="evenodd" d="M2.97183 22.1394C2.85985 22.1394 2.75742 22.067 2.72313 21.9554L0.0117594 13.1351C-0.00950798 13.0661 -0.00126145 12.9914 0.0347629 12.9285C0.0712212 12.866 0.131551 12.8213 0.201864 12.8048L4.23268 11.8747C4.36593 11.8439 4.50004 11.9211 4.54041 12.0518L7.25178 20.8721C7.27305 20.9411 7.26436 21.0162 7.22834 21.0787C7.19232 21.1412 7.13155 21.1863 7.06124 21.2024L3.03042 22.1329C3.01089 22.1373 2.99136 22.1394 2.97183 22.1394Z" fill="#EB486A"/>
<path fill-rule="evenodd" clip-rule="evenodd" d="M4.23484 20.216C3.80125 20.216 3.42017 19.9235 3.30776 19.5042C3.24135 19.2568 3.27564 18.9982 3.40368 18.7759C3.53215 18.5537 3.73918 18.3949 3.98658 18.3289C4.06817 18.3067 4.15194 18.2959 4.23571 18.2959C4.66887 18.2959 5.04994 18.5884 5.16236 19.0073C5.29908 19.5186 4.99482 20.0459 4.48354 20.1831C4.40194 20.2048 4.31861 20.216 4.23484 20.216Z" fill="white"/>
</g>
<defs>
<clipPath id="clip0_16346_8476">
<rect width="22.2222" height="22.2222" fill="white"/>
</clipPath>
</defs>
</svg>
