<svg width="35" height="35" viewBox="0 0 35 35" fill="none" xmlns="http://www.w3.org/2000/svg">
<path d="M33.9062 17.3756V31.191C33.9062 31.6095 33.74 32.0109 33.4442 32.3069C33.1483 32.6029 32.747 32.7692 32.3285 32.7694H22.9612C22.754 32.7694 22.5488 32.7285 22.3573 32.6492C22.1659 32.5699 21.9919 32.4536 21.8454 32.307C21.6989 32.1604 21.5827 31.9864 21.5035 31.795C21.4242 31.6035 21.3834 31.3983 21.3835 31.191V17.3756C21.3834 17.1684 21.4242 16.9632 21.5035 16.7718C21.5828 16.5803 21.699 16.4064 21.8455 16.2599C21.992 16.1134 22.166 15.9972 22.3574 15.9179C22.5488 15.8386 22.754 15.7978 22.9612 15.7979H25.092V15.8026C25.0919 15.9567 25.1223 16.1092 25.1812 16.2516C25.2401 16.3939 25.3265 16.5233 25.4355 16.6322C25.5444 16.7411 25.6737 16.8275 25.8161 16.8865C25.9584 16.9454 26.111 16.9757 26.265 16.9757H29.0247C29.1788 16.9757 29.3313 16.9454 29.4736 16.8865C29.616 16.8275 29.7453 16.7411 29.8542 16.6322C29.9632 16.5233 30.0496 16.3939 30.1085 16.2516C30.1675 16.1092 30.1978 15.9567 30.1977 15.8026V15.7979H32.3285C32.7469 15.7979 33.1482 15.9641 33.4441 16.26C33.74 16.5559 33.9062 16.9572 33.9062 17.3756ZM25.766 26.1222V23.8677H23.5122V26.1222H25.766Z" fill="#F8EC7D"/>
<path d="M25.092 15.7978V15.726C25.0919 15.572 25.1223 15.4194 25.1812 15.2771C25.2401 15.1347 25.3265 15.0054 25.4355 14.8965C25.5444 14.7875 25.6737 14.7011 25.8161 14.6422C25.9584 14.5833 26.111 14.5529 26.265 14.553H29.0247C29.1788 14.5529 29.3313 14.5833 29.4736 14.6422C29.616 14.7011 29.7453 14.7875 29.8542 14.8965C29.9632 15.0054 30.0496 15.1347 30.1085 15.2771C30.1675 15.4194 30.1978 15.572 30.1977 15.726V15.8026C30.1978 15.9566 30.1675 16.1092 30.1085 16.2515C30.0496 16.3939 29.9632 16.5232 29.8542 16.6321C29.7453 16.7411 29.616 16.8275 29.4736 16.8864C29.3313 16.9454 29.1788 16.9757 29.0247 16.9756H26.265C26.111 16.9757 25.9584 16.9454 25.8161 16.8864C25.6737 16.8275 25.5444 16.7411 25.4355 16.6321C25.3265 16.5232 25.2401 16.3939 25.1812 16.2515C25.1223 16.1092 25.0919 15.9566 25.092 15.8026V15.7978Z" fill="#6FE3FF"/>
<path d="M26.7497 9.63716V14.5529H26.265C26.111 14.5528 25.9584 14.5832 25.8161 14.6421C25.6738 14.701 25.5444 14.7874 25.4355 14.8964C25.3266 15.0053 25.2402 15.1346 25.1812 15.277C25.1223 15.4193 25.092 15.5719 25.092 15.7259V15.7977H22.9612C22.754 15.7977 22.5489 15.8385 22.3574 15.9177C22.166 15.997 21.992 16.1132 21.8455 16.2597C21.699 16.4062 21.5828 16.5802 21.5035 16.7716C21.4242 16.9631 21.3835 17.1682 21.3835 17.3754V27.5473L13.9214 31.8553V17.0418L26.7483 9.63647L26.7497 9.63716Z" fill="#C16752"/>
<path d="M13.9214 17.0419L7.38214 13.2664L20.2084 5.86035H20.2091L26.7484 9.63652L13.9214 17.0419Z" fill="#AF593C"/>
<path d="M25.766 23.8677H23.5122V26.1222H25.766V23.8677Z" fill="#6FE3FF"/>
<path d="M20.2082 5.86035L7.38192 13.2664L1.09491 9.63652L13.9212 2.23047L20.2082 5.86035Z" fill="#C16752"/>
<path d="M13.9214 17.0418V31.8553L1.09375 24.4493V9.63716L1.09512 9.63647L7.38213 13.2664L13.9214 17.0418Z" fill="#E48E66"/>
<path d="M24.0133 22.2174H23.5122C23.3853 22.2174 23.2636 22.167 23.1738 22.0772C23.0841 21.9875 23.0337 21.8658 23.0337 21.7389V19.4844C23.0337 19.3575 23.0841 19.2358 23.1738 19.146C23.2636 19.0563 23.3853 19.0059 23.5122 19.0059H25.766C25.8929 19.0059 26.0146 19.0563 26.1044 19.146C26.1941 19.2358 26.2445 19.3575 26.2445 19.4844V19.8063C26.2446 19.9196 26.2046 20.0292 26.1315 20.1156C26.0584 20.2021 25.957 20.2599 25.8454 20.2787C25.7337 20.2974 25.619 20.276 25.5217 20.2182C25.4243 20.1604 25.3506 20.0699 25.3137 19.9629H23.9907V21.2604H24.0133C24.1402 21.2604 24.2619 21.3108 24.3516 21.4005C24.4414 21.4902 24.4918 21.612 24.4918 21.7389C24.4918 21.8658 24.4414 21.9875 24.3516 22.0772C24.2619 22.167 24.1402 22.2174 24.0133 22.2174Z" fill="#6FE3FF"/>
<path d="M24.0133 30.9831H23.5122C23.3853 30.9831 23.2636 30.9326 23.1738 30.8429C23.0841 30.7532 23.0337 30.6315 23.0337 30.5045V28.2507C23.0337 28.1238 23.0841 28.0021 23.1738 27.9124C23.2636 27.8226 23.3853 27.7722 23.5122 27.7722H25.766C25.8929 27.7722 26.0146 27.8226 26.1044 27.9124C26.1941 28.0021 26.2445 28.1238 26.2445 28.2507V28.7115C26.2457 28.7743 26.2345 28.8368 26.2115 28.8953C26.1885 28.9538 26.1543 29.0072 26.1107 29.0524C26.0671 29.0977 26.015 29.1339 25.9573 29.1591C25.8997 29.1842 25.8377 29.1977 25.7749 29.1989C25.7121 29.2 25.6496 29.1888 25.5911 29.1659C25.5326 29.1429 25.4792 29.1086 25.4339 29.065C25.3887 29.0214 25.3525 28.9693 25.3273 28.9117C25.3022 28.8541 25.2887 28.7921 25.2875 28.7292H23.9907V30.026H24.0133C24.1402 30.026 24.2619 30.0764 24.3516 30.1662C24.4414 30.2559 24.4918 30.3776 24.4918 30.5045C24.4918 30.6315 24.4414 30.7532 24.3516 30.8429C24.2619 30.9326 24.1402 30.9831 24.0133 30.9831Z" fill="#6FE3FF"/>
<path d="M25.4666 22.1477C25.4038 22.1478 25.3416 22.1355 25.2835 22.1115C25.2255 22.0875 25.1728 22.0522 25.1284 22.0077L24.3633 21.2435C24.3188 21.199 24.2836 21.1463 24.2595 21.0882C24.2355 21.0302 24.2231 20.9679 24.2231 20.9051C24.2231 20.8423 24.2355 20.78 24.2595 20.722C24.2836 20.6639 24.3188 20.6112 24.3633 20.5667C24.4077 20.5223 24.4605 20.487 24.5185 20.463C24.5766 20.4389 24.6388 20.4266 24.7017 20.4266C24.7645 20.4266 24.8267 20.4389 24.8848 20.463C24.9428 20.487 24.9956 20.5223 25.04 20.5667L25.4667 20.9929L26.868 19.5916C26.9125 19.5471 26.9652 19.5119 27.0233 19.4878C27.0813 19.4638 27.1436 19.4514 27.2064 19.4514C27.2693 19.4514 27.3315 19.4638 27.3895 19.4878C27.4476 19.5119 27.5004 19.5471 27.5448 19.5916C27.5892 19.636 27.6245 19.6888 27.6485 19.7468C27.6726 19.8049 27.685 19.8671 27.685 19.93C27.685 19.9928 27.6726 20.055 27.6485 20.1131C27.6245 20.1711 27.5892 20.2239 27.5448 20.2683L25.805 22.0081C25.7606 22.0525 25.7078 22.0877 25.6498 22.1117C25.5917 22.1356 25.5294 22.1479 25.4666 22.1477Z" fill="#2561A1"/>
<path d="M25.4666 30.9832C25.4038 30.9833 25.3416 30.971 25.2835 30.9469C25.2255 30.9229 25.1728 30.8877 25.1284 30.8432L24.3633 30.0789C24.3188 30.0345 24.2836 29.9817 24.2595 29.9237C24.2355 29.8656 24.2231 29.8034 24.2231 29.7406C24.2231 29.6777 24.2355 29.6155 24.2595 29.5574C24.2836 29.4994 24.3188 29.4466 24.3633 29.4022C24.4077 29.3577 24.4605 29.3225 24.5185 29.2984C24.5766 29.2744 24.6388 29.262 24.7017 29.262C24.7645 29.262 24.8267 29.2744 24.8848 29.2984C24.9428 29.3225 24.9956 29.3577 25.04 29.4022L25.4667 29.8284L26.868 28.427C26.9125 28.3826 26.9652 28.3473 27.0233 28.3233C27.0813 28.2992 27.1436 28.2869 27.2064 28.2869C27.2693 28.2869 27.3315 28.2992 27.3895 28.3233C27.4476 28.3473 27.5004 28.3826 27.5448 28.427C27.5892 28.4715 27.6245 28.5242 27.6485 28.5823C27.6726 28.6403 27.685 28.7026 27.685 28.7654C27.685 28.8282 27.6726 28.8905 27.6485 28.9485C27.6245 29.0066 27.5892 29.0593 27.5448 29.1038L25.805 30.8435C25.7606 30.8879 25.7078 30.9232 25.6498 30.9471C25.5917 30.9711 25.5294 30.9833 25.4666 30.9832Z" fill="#2561A1"/>
<path d="M31.7775 21.0901H28.7718C28.6449 21.0901 28.5232 21.0397 28.4334 20.9499C28.3437 20.8602 28.2933 20.7385 28.2933 20.6116C28.2933 20.4847 28.3437 20.363 28.4334 20.2732C28.5232 20.1835 28.6449 20.1331 28.7718 20.1331H31.7775C31.9045 20.1331 32.0262 20.1835 32.1159 20.2732C32.2057 20.363 32.2561 20.4847 32.2561 20.6116C32.2561 20.7385 32.2057 20.8602 32.1159 20.9499C32.0262 21.0397 31.9045 21.0901 31.7775 21.0901Z" fill="#E48E66"/>
<path d="M31.7775 25.4734H28.7718C28.6449 25.4734 28.5232 25.423 28.4334 25.3332C28.3437 25.2435 28.2933 25.1218 28.2933 24.9949C28.2933 24.868 28.3437 24.7462 28.4334 24.6565C28.5232 24.5668 28.6449 24.5164 28.7718 24.5164H31.7775C31.9045 24.5164 32.0262 24.5668 32.1159 24.6565C32.2057 24.7462 32.2561 24.868 32.2561 24.9949C32.2561 25.1218 32.2057 25.2435 32.1159 25.3332C32.0262 25.423 31.9045 25.4734 31.7775 25.4734Z" fill="#E48E66"/>
<path d="M31.7775 29.8564H28.7718C28.6449 29.8564 28.5232 29.806 28.4334 29.7163C28.3437 29.6266 28.2933 29.5048 28.2933 29.3779C28.2933 29.251 28.3437 29.1293 28.4334 29.0396C28.5232 28.9498 28.6449 28.8994 28.7718 28.8994H31.7775C31.9045 28.8994 32.0262 28.9498 32.1159 29.0396C32.2057 29.1293 32.2561 29.251 32.2561 29.3779C32.2561 29.5048 32.2057 29.6266 32.1159 29.7163C32.0262 29.806 31.9045 29.8564 31.7775 29.8564Z" fill="#E48E66"/>
</svg>
