<svg width="46" height="46" viewBox="0 0 46 46" fill="none" xmlns="http://www.w3.org/2000/svg">
<g filter="url(#filter0_d_7836_93102)">
<rect x="8" y="6" width="30" height="30" rx="3.78788" fill="#3C76F1" shape-rendering="crispEdges"/>
<path d="M20.8808 24.8369C22.0636 26.0197 23.9813 26.0197 25.1641 24.8369L25.1641 24.8369L27.326 22.675C27.727 22.2877 27.7381 21.6485 27.3508 21.2475C26.9634 20.8464 26.3243 20.8353 25.9232 21.2227C25.9148 21.2308 25.9065 21.2391 25.8984 21.2475L24.0253 23.1199L24.0098 13.9334C24.0098 13.3758 23.5578 12.9238 23.0002 12.9238C22.4427 12.9238 21.9907 13.3758 21.9907 13.9334L22.0048 23.1051L20.1465 21.2468C19.7454 20.8595 19.1063 20.8706 18.7189 21.2716C18.3411 21.6629 18.3411 22.2831 18.7189 22.6744L20.8808 24.8369Z" fill="white"/>
<path d="M30.0666 22.6836C29.509 22.6836 29.057 23.1356 29.057 23.6932V26.7832C29.0566 26.935 28.9336 27.0581 28.7817 27.0584H17.2173C17.0654 27.058 16.9424 26.935 16.942 26.7832V23.6932C16.942 23.1356 16.49 22.6836 15.9324 22.6836C15.3749 22.6836 14.9229 23.1356 14.9229 23.6932V26.7832C14.9243 28.0497 15.9507 29.0761 17.2173 29.0776H28.7817C30.0483 29.0761 31.0746 28.0497 31.0761 26.7832V23.6932C31.0762 23.1356 30.6241 22.6836 30.0666 22.6836Z" fill="white"/>
</g>
<defs>
<filter id="filter0_d_7836_93102" x="0" y="0" width="46" height="46" filterUnits="userSpaceOnUse" color-interpolation-filters="sRGB">
<feFlood flood-opacity="0" result="BackgroundImageFix"/>
<feColorMatrix in="SourceAlpha" type="matrix" values="0 0 0 0 0 0 0 0 0 0 0 0 0 0 0 0 0 0 127 0" result="hardAlpha"/>
<feOffset dy="2"/>
<feGaussianBlur stdDeviation="4"/>
<feComposite in2="hardAlpha" operator="out"/>
<feColorMatrix type="matrix" values="0 0 0 0 1 0 0 0 0 1 0 0 0 0 1 0 0 0 1 0"/>
<feBlend mode="normal" in2="BackgroundImageFix" result="effect1_dropShadow_7836_93102"/>
<feBlend mode="normal" in="SourceGraphic" in2="effect1_dropShadow_7836_93102" result="shape"/>
</filter>
</defs>
</svg>
